<?xml version="1.0" encoding="utf-8"?>
<!-- Generator: Adobe Illustrator 24.2.3, SVG Export Plug-In . SVG Version: 6.00 Build 0)  -->
<svg version="1.1" id="Layer_1" xmlns="http://www.w3.org/2000/svg" xmlns:xlink="http://www.w3.org/1999/xlink" x="0px" y="0px"
	 viewBox="0 0 512 256" style="enable-background:new 0 0 512 256;" xml:space="preserve">
<style type="text/css">
	.st0{fill:#00B3FF;}
	.st1{fill:url(#SVGID_1_);}
	.st2{fill:url(#SVGID_2_);}
	.st3{fill:url(#SVGID_3_);}
	.st4{fill:url(#SVGID_4_);}
	.st5{fill:url(#SVGID_5_);}
	.st6{fill:url(#SVGID_6_);}
	.st7{fill:url(#SVGID_7_);}
	.st8{fill:url(#SVGID_8_);}
	.st9{fill:#3B82F6;}
</style>
<g>
	<path class="st0" d="M136.5,52.8c20.4,0,33.1,22.1,22.9,39.7l-51.2,88.8c-10.2,17.6-35.7,17.6-45.8,0L11.1,92.5
		C0.9,74.8,13.6,52.8,34,52.8H136.5z"/>
	
		<radialGradient id="SVGID_1_" cx="481.3763" cy="-4832.7705" r="139.8508" gradientTransform="matrix(-1 0 0 -1 571.7383 -4778.1006)" gradientUnits="userSpaceOnUse">
		<stop  offset="0" style="stop-color:#4053FB"/>
		<stop  offset="1" style="stop-color:#17F0FF"/>
	</radialGradient>
	<path class="st1" d="M135,51.3c20.4,0,33.1,22.1,22.9,39.7l-51.2,88.8c-10.2,17.6-35.7,17.6-45.8,0L9.6,91
		c-10.2-17.6,2.5-39.7,22.9-39.7H135z"/>
	<g>
		<path class="st0" d="M136.3,51.3c0.1,0,0.3,0,0.4,0l0,0H136.3z"/>
		<path class="st0" d="M42.4,51.3c3,0.6,7.7,2.4,9.8,7.3C57,70.1,39.5,80.2,39.5,96c0,23.7,30,34,44.6,15.5c3-3.9,13.4-22,26.6-44.6
			c4.8-9.3,14.4-15.7,25.6-15.7C126.7,51.3,51.6,51.3,42.4,51.3z"/>
	</g>
	<g>
		
			<linearGradient id="SVGID_2_" gradientUnits="userSpaceOnUse" x1="36.9025" y1="-96.4187" x2="167.9237" y2="-241.0722" gradientTransform="matrix(1 0 0 1 0 256)">
			<stop  offset="5.454540e-02" style="stop-color:#73F4D6"/>
			<stop  offset="0.2848" style="stop-color:#17F0FF"/>
			<stop  offset="1" style="stop-color:#4053FB"/>
		</linearGradient>
		<path class="st2" d="M134.8,51.3c0.1,0,0.3,0,0.4,0l0,0H134.8z"/>
		
			<linearGradient id="SVGID_3_" gradientUnits="userSpaceOnUse" x1="16.1045" y1="-124.1937" x2="141.1816" y2="-262.2846" gradientTransform="matrix(1 0 0 1 0 256)">
			<stop  offset="5.454540e-02" style="stop-color:#73F4D6"/>
			<stop  offset="0.2848" style="stop-color:#17F0FF"/>
			<stop  offset="1" style="stop-color:#4053FB"/>
		</linearGradient>
		<path class="st3" d="M40.9,51.3c3,0.6,7.7,2.4,9.8,7.3c1.7,4.1,1.3,6.8-2.1,13.3C41.4,83.6,38,87.3,38,96c0,23.7,30,34,44.6,15.5
			c3-3.9,13.4-22,26.6-44.6c4.8-9.3,14.4-15.7,25.6-15.7C125.2,51.3,50.1,51.3,40.9,51.3z"/>
	</g>
</g>
<g>
	<linearGradient id="SVGID_4_" gradientUnits="userSpaceOnUse" x1="169" y1="155.8758" x2="232.2463" y2="155.8758">
		<stop  offset="5.454540e-02" style="stop-color:#73F4D6"/>
		<stop  offset="0.2848" style="stop-color:#17F0FF"/>
		<stop  offset="1" style="stop-color:#4053FB"/>
	</linearGradient>
	<path class="st4" d="M225.9,120c1.7,0,3.2,0.6,4.5,1.7c1.3,1.1,1.9,2.5,1.9,4.2c0,0.9-0.2,1.8-0.6,2.8l-25.3,59.2
		c-0.6,1.4-1.5,2.4-2.6,3c-1.1,0.6-2.3,1-3.4,1c-1.1-0.1-2.1-0.4-3.2-1.1c-1-0.6-1.8-1.6-2.4-2.8l-25.3-59.4
		c-0.2-0.4-0.3-0.8-0.4-1.3c-0.1-0.4-0.1-0.9-0.1-1.3c0-2,0.7-3.5,2.1-4.6c1.4-1.1,2.8-1.6,4.1-1.6c2.6,0,4.5,1.3,5.6,4l22.4,52.7
		l-3.6,0.1l20.6-52.8C221.4,121.3,223.3,120,225.9,120z"/>
	<linearGradient id="SVGID_5_" gradientUnits="userSpaceOnUse" x1="238.285" y1="156.0292" x2="307.7737" y2="156.0292">
		<stop  offset="5.454540e-02" style="stop-color:#73F4D6"/>
		<stop  offset="0.2848" style="stop-color:#17F0FF"/>
		<stop  offset="1" style="stop-color:#4053FB"/>
	</linearGradient>
	<path class="st5" d="M307.8,156c0,5.1-0.9,9.9-2.6,14.3c-1.7,4.4-4.1,8.3-7.2,11.7c-3.1,3.4-6.8,6-11.1,7.9
		c-4.3,1.9-8.9,2.9-14,2.9c-5,0-9.7-1-13.9-2.9c-4.2-1.9-7.9-4.6-11-7.9c-3.1-3.4-5.5-7.3-7.2-11.7c-1.7-4.4-2.6-9.2-2.6-14.3
		s0.9-9.9,2.6-14.3c1.7-4.4,4.1-8.3,7.2-11.7c3.1-3.4,6.8-6,11-7.9c4.2-1.9,8.9-2.9,13.9-2.9c5,0,9.7,1,14,2.9
		c4.3,1.9,7.9,4.6,11.1,7.9c3.1,3.4,5.5,7.3,7.2,11.7C306.9,146.1,307.8,150.9,307.8,156z M294.5,156c0-4.6-0.9-8.7-2.8-12.4
		c-1.8-3.7-4.4-6.7-7.6-8.9c-3.2-2.2-6.9-3.3-11.2-3.3c-4.2,0-7.9,1.1-11.2,3.3c-3.2,2.2-5.7,5.1-7.5,8.8c-1.8,3.7-2.7,7.8-2.7,12.5
		c0,4.6,0.9,8.7,2.7,12.4c1.8,3.7,4.3,6.7,7.5,8.9c3.2,2.2,6.9,3.3,11.2,3.3c4.2,0,7.9-1.1,11.2-3.3c3.2-2.2,5.7-5.1,7.6-8.9
		C293.5,164.7,294.5,160.6,294.5,156z"/>
	<linearGradient id="SVGID_6_" gradientUnits="userSpaceOnUse" x1="315.9591" y1="156.2847" x2="373.0328" y2="156.2847">
		<stop  offset="5.454540e-02" style="stop-color:#73F4D6"/>
		<stop  offset="0.2848" style="stop-color:#17F0FF"/>
		<stop  offset="1" style="stop-color:#4053FB"/>
	</linearGradient>
	<path class="st6" d="M369.7,123.7c1.8,0.9,2.8,2.3,3.1,4.2c0.3,1.9-0.2,3.7-1.5,5.2c-0.9,1.2-2,1.9-3.4,2c-1.4,0.1-2.8-0.1-4.2-0.8
		c-1.6-0.7-3.4-1.3-5.2-1.7c-1.8-0.4-3.7-0.6-5.7-0.6c-3.7,0-7,0.6-9.9,1.7c-2.9,1.2-5.4,2.8-7.4,5c-2,2.1-3.6,4.7-4.7,7.6
		c-1.1,2.9-1.6,6.2-1.6,9.7c0,4.2,0.6,7.8,1.8,10.8c1.2,3.1,2.8,5.6,5,7.7c2.1,2,4.6,3.6,7.5,4.6c2.9,1,6,1.5,9.3,1.5
		c1.8,0,3.7-0.2,5.5-0.5c1.8-0.3,3.6-1,5.3-1.8c1.4-0.7,2.8-0.9,4.2-0.7c1.4,0.2,2.6,0.9,3.5,2.1c1.4,1.7,1.9,3.5,1.5,5.3
		c-0.4,1.8-1.4,3.1-3.1,3.9c-1.8,0.9-3.6,1.6-5.5,2.2c-1.9,0.6-3.8,1-5.7,1.3c-1.9,0.3-3.9,0.5-5.8,0.5c-4.9,0-9.6-0.8-14-2.4
		c-4.4-1.6-8.3-3.9-11.8-7c-3.4-3.1-6.2-6.9-8.1-11.5c-2-4.6-3-9.9-3-16c0-5.3,0.9-10.1,2.7-14.5c1.8-4.4,4.4-8.3,7.7-11.5
		c3.3-3.2,7.2-5.8,11.7-7.6c4.5-1.8,9.4-2.7,14.7-2.7c3,0,5.9,0.3,8.8,1C364.5,121.4,367.2,122.4,369.7,123.7z"/>
	<linearGradient id="SVGID_7_" gradientUnits="userSpaceOnUse" x1="377.0566" y1="156.0648" x2="440.4055" y2="156.0648">
		<stop  offset="5.454540e-02" style="stop-color:#73F4D6"/>
		<stop  offset="0.2848" style="stop-color:#17F0FF"/>
		<stop  offset="1" style="stop-color:#4053FB"/>
	</linearGradient>
	<path class="st7" d="M410,136.3l-22.1,52c-0.5,1.3-1.2,2.3-2.2,3c-1,0.7-2.1,1.1-3.2,1.1c-1.8,0-3.2-0.5-4.1-1.5
		c-0.9-1-1.3-2.3-1.3-3.8c0-0.6,0.1-1.3,0.3-1.9l25.5-61.2c0.5-1.4,1.4-2.4,2.5-3.2c1.1-0.8,2.3-1.1,3.6-0.9c1.2,0,2.4,0.4,3.4,1.1
		c1.1,0.7,1.8,1.7,2.3,3l25.2,60c0.3,0.9,0.5,1.7,0.5,2.5c0,1.8-0.6,3.3-1.8,4.4c-1.2,1.1-2.5,1.6-3.9,1.6c-1.2,0-2.3-0.4-3.3-1.1
		c-1-0.8-1.8-1.8-2.3-3.1l-22-51.3L410,136.3z M391.1,175.8l5.6-11.8h27.6l1.9,11.8H391.1z"/>
	<linearGradient id="SVGID_8_" gradientUnits="userSpaceOnUse" x1="449.1029" y1="156.0292" x2="504.367" y2="156.0292">
		<stop  offset="5.454540e-02" style="stop-color:#73F4D6"/>
		<stop  offset="0.2848" style="stop-color:#17F0FF"/>
		<stop  offset="1" style="stop-color:#4053FB"/>
	</linearGradient>
	<path class="st8" d="M481.1,120.2c6.5,0,11.4,1.5,14.6,4.6c3.2,3.1,4.8,7.6,4.8,13.6c0,3.2-0.8,6-2.4,8.4c-1.6,2.4-3.9,4.3-7,5.6
		c-3.1,1.3-6.9,2-11.4,2l0.4-4.6c2.1,0,4.5,0.3,7.3,0.9c2.7,0.6,5.4,1.6,7.9,3.1c2.6,1.5,4.7,3.5,6.3,6.1c1.7,2.6,2.5,6,2.5,10.1
		c0,4.5-0.7,8.2-2.2,11.1c-1.5,2.9-3.4,5.1-5.8,6.7c-2.4,1.6-4.9,2.6-7.7,3.2c-2.7,0.6-5.4,0.9-7.9,0.9h-25.5
		c-1.8,0-3.3-0.6-4.5-1.8c-1.2-1.2-1.8-2.7-1.8-4.5v-59.2c0-1.8,0.6-3.3,1.8-4.5c1.2-1.2,2.7-1.8,4.5-1.8H481.1z M479.3,132.3h-18.2
		l1.3-1.6v18.5l-1.2-0.9h18.4c2,0,3.8-0.6,5.3-1.9c1.6-1.3,2.4-3.2,2.4-5.6c0-2.9-0.7-5.1-2.2-6.4
		C483.6,133,481.7,132.3,479.3,132.3z M480.1,160.3h-18.6l0.9-0.8v21.6l-1-1h19.4c3.1,0,5.6-0.8,7.5-2.5c1.8-1.7,2.8-4.2,2.8-7.5
		c0-3.1-0.6-5.3-1.8-6.7c-1.2-1.4-2.7-2.2-4.4-2.6C483.1,160.5,481.5,160.3,480.1,160.3z"/>
</g>
<g>
	<path class="st9" d="M227.5,118.6c1.7,0,3.2,0.6,4.5,1.7c1.3,1.1,1.9,2.5,1.9,4.2c0,0.9-0.2,1.8-0.6,2.8L208,186.5
		c-0.6,1.4-1.5,2.4-2.6,3c-1.1,0.6-2.3,1-3.4,1c-1.1-0.1-2.1-0.4-3.2-1.1c-1-0.6-1.8-1.6-2.4-2.8l-25.3-59.4
		c-0.2-0.4-0.3-0.8-0.4-1.3c-0.1-0.4-0.1-0.9-0.1-1.3c0-2,0.7-3.5,2.1-4.6c1.4-1.1,2.8-1.6,4.1-1.6c2.6,0,4.5,1.3,5.6,4l22.4,52.7
		l-3.6,0.1l20.6-52.8C223.1,119.9,224.9,118.6,227.5,118.6z"/>
	<path class="st9" d="M309.4,154.6c0,5.1-0.9,9.9-2.6,14.3c-1.7,4.4-4.1,8.3-7.2,11.7c-3.1,3.4-6.8,6-11.1,7.9
		c-4.3,1.9-8.9,2.9-14,2.9c-5,0-9.7-1-13.9-2.9c-4.2-1.9-7.9-4.6-11-7.9c-3.1-3.4-5.5-7.3-7.2-11.7c-1.7-4.4-2.6-9.2-2.6-14.3
		c0-5.1,0.9-9.9,2.6-14.3c1.7-4.4,4.1-8.3,7.2-11.7c3.1-3.4,6.8-6,11-7.9c4.2-1.9,8.9-2.9,13.9-2.9c5,0,9.7,1,14,2.9
		c4.3,1.9,7.9,4.6,11.1,7.9c3.1,3.4,5.5,7.3,7.2,11.7C308.6,144.7,309.4,149.5,309.4,154.6z M296.1,154.6c0-4.6-0.9-8.7-2.8-12.4
		c-1.8-3.7-4.4-6.7-7.6-8.9c-3.2-2.2-6.9-3.3-11.2-3.3c-4.2,0-7.9,1.1-11.2,3.3c-3.2,2.2-5.7,5.1-7.5,8.8c-1.8,3.7-2.7,7.8-2.7,12.5
		c0,4.6,0.9,8.7,2.7,12.4c1.8,3.7,4.3,6.7,7.5,8.9c3.2,2.2,6.9,3.3,11.2,3.3c4.2,0,7.9-1.1,11.2-3.3c3.2-2.2,5.7-5.1,7.6-8.9
		C295.2,163.3,296.1,159.2,296.1,154.6z"/>
	<path class="st9" d="M371.3,122.3c1.8,0.9,2.8,2.3,3.1,4.2c0.3,1.9-0.2,3.7-1.5,5.2c-0.9,1.2-2,1.9-3.4,2c-1.4,0.1-2.8-0.1-4.2-0.8
		c-1.6-0.7-3.4-1.3-5.2-1.7c-1.8-0.4-3.7-0.6-5.7-0.6c-3.7,0-7,0.6-9.9,1.7c-2.9,1.2-5.4,2.8-7.4,5c-2,2.1-3.6,4.7-4.7,7.6
		c-1.1,2.9-1.6,6.2-1.6,9.7c0,4.2,0.6,7.8,1.8,10.8c1.2,3.1,2.8,5.6,5,7.7c2.1,2,4.6,3.6,7.5,4.6c2.9,1,6,1.5,9.3,1.5
		c1.8,0,3.7-0.2,5.5-0.5c1.8-0.3,3.6-1,5.3-1.8c1.4-0.7,2.8-0.9,4.2-0.7c1.4,0.2,2.6,0.9,3.5,2.1c1.4,1.7,1.9,3.5,1.5,5.3
		c-0.4,1.8-1.4,3.1-3.1,3.9c-1.8,0.9-3.6,1.6-5.5,2.2c-1.9,0.6-3.8,1-5.7,1.3c-1.9,0.3-3.9,0.5-5.8,0.5c-4.9,0-9.6-0.8-14-2.4
		c-4.4-1.6-8.3-3.9-11.8-7c-3.4-3.1-6.2-6.9-8.1-11.5c-2-4.6-3-9.9-3-16c0-5.3,0.9-10.1,2.7-14.5c1.8-4.4,4.4-8.3,7.7-11.5
		c3.3-3.2,7.2-5.8,11.7-7.6c4.5-1.8,9.4-2.7,14.7-2.7c3,0,5.9,0.3,8.8,1C366.1,120,368.8,121,371.3,122.3z"/>
	<path class="st9" d="M411.6,134.9l-22.1,52c-0.5,1.3-1.2,2.3-2.2,3c-1,0.7-2.1,1.1-3.2,1.1c-1.8,0-3.2-0.5-4.1-1.5
		c-0.9-1-1.3-2.3-1.3-3.8c0-0.6,0.1-1.3,0.3-1.9l25.5-61.2c0.5-1.4,1.4-2.4,2.5-3.2c1.1-0.8,2.3-1.1,3.6-0.9c1.2,0,2.4,0.4,3.4,1.1
		c1.1,0.7,1.8,1.7,2.3,3l25.2,60c0.3,0.9,0.5,1.7,0.5,2.5c0,1.8-0.6,3.3-1.8,4.4c-1.2,1.1-2.5,1.6-3.9,1.6c-1.2,0-2.3-0.4-3.3-1.1
		c-1-0.8-1.8-1.8-2.3-3.1l-22-51.3L411.6,134.9z M392.7,174.4l5.6-11.8H426l1.9,11.8H392.7z"/>
	<path class="st9" d="M482.8,118.8c6.5,0,11.4,1.5,14.6,4.6c3.2,3.1,4.8,7.6,4.8,13.6c0,3.2-0.8,6-2.4,8.4c-1.6,2.4-3.9,4.3-7,5.6
		c-3.1,1.3-6.9,2-11.4,2l0.4-4.6c2.1,0,4.5,0.3,7.3,0.9c2.7,0.6,5.4,1.6,7.9,3.1c2.6,1.5,4.7,3.5,6.3,6.1c1.7,2.6,2.5,6,2.5,10.1
		c0,4.5-0.7,8.2-2.2,11.1c-1.5,2.9-3.4,5.1-5.8,6.7c-2.4,1.6-4.9,2.6-7.7,3.2c-2.7,0.6-5.4,0.9-7.9,0.9H457c-1.8,0-3.3-0.6-4.5-1.8
		s-1.8-2.7-1.8-4.5v-59.2c0-1.8,0.6-3.3,1.8-4.5c1.2-1.2,2.7-1.8,4.5-1.8H482.8z M480.9,130.9h-18.2l1.3-1.6v18.5l-1.2-0.9h18.4
		c2,0,3.8-0.6,5.3-1.9c1.6-1.3,2.4-3.2,2.4-5.6c0-2.9-0.7-5.1-2.2-6.4C485.2,131.6,483.3,130.9,480.9,130.9z M481.7,158.9h-18.6
		l0.9-0.8v21.6l-1-1h19.4c3.1,0,5.6-0.8,7.5-2.5c1.8-1.7,2.8-4.2,2.8-7.5c0-3.1-0.6-5.3-1.8-6.7c-1.2-1.4-2.7-2.2-4.4-2.6
		C484.7,159.1,483.2,158.9,481.7,158.9z"/>
</g>
</svg>
